<svg width="80" height="80" viewBox="0 0 80 80" fill="none" xmlns="http://www.w3.org/2000/svg">
<path d="M40 6.66669C21.6 6.66669 6.66669 21.6 6.66669 40C6.66669 58.4 21.6 73.3334 40 73.3334C58.4 73.3334 73.3334 58.4 73.3334 40C73.3334 21.6 58.4 6.66669 40 6.66669ZM43.3334 17.6667L47.8334 14.5C53.8631 16.3685 59.0358 20.313 62.4334 25.6334L61.1334 30.1L56.6334 31.6334L43.3334 22.3334V17.6667ZM32.1667 14.5L36.6667 17.6667V22.3334L23.3667 31.6334L18.8667 30.1L17.5667 25.6334C20.984 20.3312 26.1493 16.3924 32.1667 14.5ZM23.6 57.0334L19.8 57.3667C15.6215 52.5466 13.325 46.3792 13.3334 40C13.3334 39.6 13.3667 39.2334 13.4 38.8334L16.7334 36.4L21.3334 38L26.2 52.4667L23.6 57.0334ZM48.3334 65.3C45.7 66.1667 42.9 66.6667 40 66.6667C37.1 66.6667 34.3 66.1667 31.6667 65.3L29.3667 60.3334L31.5 56.6667H48.5334L50.6667 60.3667L48.3334 65.3ZM47.5667 50H32.4334L27.9334 36.6L40 28.1334L52.1 36.6L47.5667 50ZM60.2 57.3667L56.4 57.0334L53.7667 52.4667L58.6334 38L63.2667 36.4334L66.6 38.8667C66.6334 39.2334 66.6667 39.6 66.6667 40C66.6667 46.6334 64.2334 52.7 60.2 57.3667Z" fill="#55acee"/>
</svg>
