<svg width="80" height="80" viewBox="0 0 80 80" fill="none" xmlns="http://www.w3.org/2000/svg">
<path d="M66.6667 9.16665C66.6664 8.77722 66.5752 8.39324 66.4002 8.04531C66.2253 7.69738 65.9715 7.39514 65.659 7.16267C65.3466 6.93021 64.9841 6.77395 64.6006 6.70635C64.2171 6.63875 63.8231 6.66168 63.45 6.77332L30.1167 16.7733C29.6016 16.9274 29.1499 17.2435 28.8287 17.6747C28.5074 18.1058 28.3337 18.629 28.3333 19.1667V52.09C26.171 50.5845 23.5627 49.8553 20.933 50.0211C18.3034 50.1869 15.8074 51.2379 13.8512 53.0031C11.8951 54.7683 10.594 57.1436 10.1599 59.7425C9.72583 62.3413 10.1842 65.0106 11.4605 67.3157C12.7367 69.6208 14.7557 71.426 17.1887 72.4374C19.6217 73.4489 22.3254 73.607 24.8597 72.886C27.3939 72.165 29.6095 70.6073 31.1457 68.4667C32.6819 66.326 33.4483 63.7284 33.32 61.0966C33.329 61.0092 33.3335 60.9213 33.3333 60.8333V34.36L61.6667 25.86V45.4267C59.5043 43.9211 56.896 43.1919 54.2664 43.3577C51.6368 43.5235 49.1407 44.5746 47.1845 46.3398C45.2284 48.1049 43.9274 50.4803 43.4933 53.0791C43.0592 55.678 43.5176 58.3472 44.7938 60.6523C46.0701 62.9575 48.089 64.7627 50.522 65.7741C52.955 66.7856 55.6587 66.9436 58.193 66.2226C60.7273 65.5016 62.9428 63.944 64.4791 61.8033C66.0153 59.6627 66.7816 57.065 66.6533 54.4333C66.6624 54.3447 66.6669 54.2557 66.6667 54.1666V9.16665Z" fill="#55acee"/>
</svg>
