<svg width="150" height="122" viewBox="0 0 150 122" fill="none" xmlns="http://www.w3.org/2000/svg">
<path d="M150 14.856C144.383 17.335 138.425 18.9622 132.325 19.6835C138.679 15.8892 143.558 9.88086 145.856 2.72197C139.815 6.29316 133.206 8.80929 126.314 10.1616C120.7 4.20349 112.703 0.479858 103.851 0.479858C86.8553 0.479858 73.0758 14.2069 73.0758 31.1375C73.0758 33.5407 73.3482 35.8803 73.8727 38.1247C48.2965 36.8458 25.6207 24.6405 10.442 6.09186C7.79355 10.6199 6.27598 15.8869 6.27598 21.5047C6.27598 32.1415 11.7094 41.525 19.9664 47.0232C15.0794 46.8707 10.2999 45.5557 6.02695 43.188C6.0252 43.3165 6.0252 43.4449 6.0252 43.5739C6.0252 58.4281 16.633 70.8196 30.7107 73.6361C26.179 74.8639 21.4256 75.0436 16.8135 74.1614C20.7293 86.3416 32.0947 95.205 45.5607 95.4531C35.0285 103.676 21.7588 108.577 7.34121 108.577C4.85684 108.577 2.40762 108.432 0 108.149C13.6189 116.847 29.7949 121.923 47.1738 121.923C103.779 121.923 134.733 75.2063 134.733 34.693C134.733 33.3632 134.704 32.0411 134.644 30.7265C140.669 26.3876 145.869 21.0133 150 14.856Z" fill="#55ACEE"/>
</svg>
