<svg width="80" height="80" viewBox="0 0 80 80" fill="none" xmlns="http://www.w3.org/2000/svg">
<path d="M50.7143 51.4286C53.4743 51.4286 55.7143 53.6686 55.7143 56.4286V62.1486L55.6914 62.4572C54.8057 68.5343 49.3486 71.4543 40.1914 71.4543C31.0686 71.4543 25.5229 68.5686 24.3257 62.5629L24.2857 62.1429V56.4286C24.2857 53.6686 26.5257 51.4286 29.2857 51.4286H50.7143ZM52.1257 34.2857H69.2857C72.0457 34.2857 74.2857 36.5257 74.2857 39.2857V45.0057L74.2629 45.3143C73.3772 51.3914 67.92 54.3114 58.7629 54.3114L58.2829 54.3057C57.8424 52.7398 56.9272 51.3491 55.6632 50.3252C54.3993 49.3012 52.8489 48.6945 51.2257 48.5886L50.7143 48.5714H48.08C49.573 47.3676 50.7771 45.8444 51.6039 44.1138C52.4306 42.3832 52.8588 40.4893 52.8572 38.5714C52.8572 37.0686 52.6 35.6286 52.1257 34.2857ZM10.7143 34.2857H27.8743C27.4 35.6286 27.1429 37.0686 27.1429 38.5714C27.1429 42.3714 28.7943 45.7914 31.4172 48.1429L31.92 48.5714H29.2857C25.68 48.5714 22.64 51 21.7143 54.3143L21.62 54.3114C12.4972 54.3114 6.95144 51.4257 5.75429 45.42L5.71429 45V39.2857C5.71429 36.5257 7.95429 34.2857 10.7143 34.2857ZM40 28.5714C42.6522 28.5714 45.1957 29.625 47.0711 31.5004C48.9464 33.3757 50 35.9193 50 38.5714C50 41.2236 48.9464 43.7671 47.0711 45.6425C45.1957 47.5179 42.6522 48.5714 40 48.5714C37.3478 48.5714 34.8043 47.5179 32.9289 45.6425C31.0536 43.7671 30 41.2236 30 38.5714C30 35.9193 31.0536 33.3757 32.9289 31.5004C34.8043 29.625 37.3478 28.5714 40 28.5714ZM58.5714 11.4286C61.2236 11.4286 63.7672 12.4822 65.6425 14.3575C67.5179 16.2329 68.5714 18.7764 68.5714 21.4286C68.5714 24.0808 67.5179 26.6243 65.6425 28.4997C63.7672 30.375 61.2236 31.4286 58.5714 31.4286C55.9193 31.4286 53.3757 30.375 51.5004 28.4997C49.625 26.6243 48.5714 24.0808 48.5714 21.4286C48.5714 18.7764 49.625 16.2329 51.5004 14.3575C53.3757 12.4822 55.9193 11.4286 58.5714 11.4286ZM21.4286 11.4286C24.0807 11.4286 26.6243 12.4822 28.4996 14.3575C30.375 16.2329 31.4286 18.7764 31.4286 21.4286C31.4286 24.0808 30.375 26.6243 28.4996 28.4997C26.6243 30.375 24.0807 31.4286 21.4286 31.4286C18.7764 31.4286 16.2329 30.375 14.3575 28.4997C12.4822 26.6243 11.4286 24.0808 11.4286 21.4286C11.4286 18.7764 12.4822 16.2329 14.3575 14.3575C16.2329 12.4822 18.7764 11.4286 21.4286 11.4286Z" fill="#55acee"/>
</svg>
