<svg width="80" height="80" viewBox="0 0 80 80" fill="none" xmlns="http://www.w3.org/2000/svg">
<path d="M10.6666 5.33337C10.6666 5.33337 5.33331 5.33337 5.33331 10.6667V38.176C5.33331 47.4027 7.22131 58.6667 24 58.6667H26.6666V42.6667L13.3333 48C13.3333 48 13.3333 34.6667 26.6666 34.6667V26.6667C26.6666 22.8907 27.1306 19.6267 29.3333 17.2C31.3653 14.96 34.6933 10.4907 43.4986 14.688L48 17.616V10.6667C48 10.6667 48 5.33337 42.6666 5.33337C38.8906 5.33337 32.1173 10.6667 26.6666 10.6667C21.216 10.6667 14.864 5.33337 10.6666 5.33337ZM16 16C17.4145 16 18.771 16.5619 19.7712 17.5621C20.7714 18.5623 21.3333 19.9189 21.3333 21.3334C21.3333 22.7479 20.7714 24.1044 19.7712 25.1046C18.771 26.1048 17.4145 26.6667 16 26.6667C14.5855 26.6667 13.2289 26.1048 12.2287 25.1046C11.2285 24.1044 10.6666 22.7479 10.6666 21.3334C10.6666 19.9189 11.2285 18.5623 12.2287 17.5621C13.2289 16.5619 14.5855 16 16 16ZM37.3333 21.3334C37.3333 21.3334 32 21.3334 32 26.6667V53.3334C32 64 37.3333 74.6667 53.3333 74.6667C69.3333 74.6667 74.6666 64 74.6666 53.3334V26.6667C74.6666 21.3334 69.3333 21.3334 69.3333 21.3334C65.5573 21.3334 58.784 26.6667 53.3333 26.6667C47.8826 26.6667 41.5306 21.3334 37.3333 21.3334ZM42.6666 32C44.0811 32 45.4377 32.5619 46.4379 33.5621C47.4381 34.5623 48 35.9189 48 37.3334C48 38.7479 47.4381 40.1044 46.4379 41.1046C45.4377 42.1048 44.0811 42.6667 42.6666 42.6667C41.2522 42.6667 39.8956 42.1048 38.8954 41.1046C37.8952 40.1044 37.3333 38.7479 37.3333 37.3334C37.3333 35.9189 37.8952 34.5623 38.8954 33.5621C39.8956 32.5619 41.2522 32 42.6666 32ZM64 32C65.4145 32 66.771 32.5619 67.7712 33.5621C68.7714 34.5623 69.3333 35.9189 69.3333 37.3334C69.3333 38.7479 68.7714 40.1044 67.7712 41.1046C66.771 42.1048 65.4145 42.6667 64 42.6667C62.5855 42.6667 61.2289 42.1048 60.2287 41.1046C59.2286 40.1044 58.6666 38.7479 58.6666 37.3334C58.6666 35.9189 59.2286 34.5623 60.2287 33.5621C61.2289 32.5619 62.5855 32 64 32ZM40 53.3334H66.6666C66.6666 53.3334 66.6666 66.6667 53.3333 66.6667C40 66.6667 40 53.3334 40 53.3334Z" fill="black"/>
</svg>
